<svg xmlns="http://www.w3.org/2000/svg" width="1000" height="1000" xmlns:v="https://vecta.io/nano"><path d="M763.7 467.1c-8.7-5.1-18.4-8.9-28.6-11.7 10.2-2.8 19.9-6.7 28.6-11.7 60.5-35 81.3-112.4 46.3-173s-112.4-81.3-172.9-46.3c-8.7 5.1-16.9 11.5-24.5 18.9 2.7-10.3 4.2-20.6 4.2-30.7 0-69.9-56.7-126.6-126.6-126.6s-126.6 56.7-126.6 126.6c0 10.1 1.5 20.4 4.2 30.7-7.6-7.5-15.7-13.9-24.5-18.9-60.5-35-137.9-14.2-172.9 46.3-35 60.6-14.2 138 46.3 173 8.7 5.1 18.4 8.9 28.6 11.7-10.2 2.8-19.9 6.7-28.6 11.7-60.5 35-81.3 112.4-46.3 173s112.4 81.3 172.9 46.3c8.7-5.1 16.9-11.5 24.5-18.9-2.7 10.3-4.2 20.6-4.2 30.7 0 69.9 56.7 126.6 126.6 126.6s126.6-56.7 126.6-126.6c0-10.1-1.5-20.4-4.2-30.7 7.6 7.5 15.7 13.9 24.5 18.9 60.5 35 137.9 14.2 172.9-46.3 34.9-60.6 14.2-138-46.3-173zm-273.5 57.1c-38 0-68.8-30.8-68.8-68.8s30.8-68.8 68.8-68.8 68.8 30.8 68.8 68.8-30.8 68.8-68.8 68.8z" fill-rule="evenodd"/></svg>